<svg id="Capa_1" enable-background="new 0 0 512 512" height="512" viewBox="0 0 512 512" width="512" xmlns="http://www.w3.org/2000/svg"><path d="m475.37 449.88 30.81 62.12h-159.18c-90.98 0-165-74.02-165-165 0-12.55 1.42-25.07 4.21-37.2l123.59-123.59c12.13-2.79 24.65-4.21 37.2-4.21 90.98 0 165 74.02 165 165 0 37.31-12.94 73.46-36.63 102.88z" fill="#fff4f4"/><path d="m475.37 449.88 30.81 62.12h-159.18v-330c90.98 0 165 74.02 165 165 0 37.31-12.94 73.46-36.63 102.88z" fill="#efe2dd"/><path d="m165 0c-90.98 0-165 74.02-165 165 0 37.31 12.94 73.46 36.63 102.88l-30.81 62.12h159.18c90.98 0 165-74.02 165-165s-74.02-165-165-165z" fill="#ffda2d"/><path d="m330 165c0 90.98-74.02 165-165 165v-330c90.98 0 165 74.02 165 165z" fill="#fdbf00"/><path d="m90 150h30v30h-30z" fill="#725d57"/><path d="m150 150h30v30h-30z" fill="#725d57"/><path d="m165 150h15v30h-15z" fill="#53433f"/><path d="m210 150h30v30h-30z" fill="#53433f"/><path d="m272 332h30v30h-30z" fill="#725d57"/><path d="m332 332h30v30h-30z" fill="#725d57"/><g fill="#53433f"><path d="m347 332h15v30h-15z"/><path d="m392 332h30v30h-30z"/></g></svg>